<svg width="196" height="61" viewBox="0 0 196 61" fill="none" xmlns="http://www.w3.org/2000/svg">
<path fill-rule="evenodd" clip-rule="evenodd" d="M68.9143 60.9079C61.5741 61.116 53.4627 61.4184 48.5629 56.2573C43.4283 50.8487 42.7124 42.719 45.0906 35.8133C47.2458 29.5555 53.5254 25.9481 59.9115 23.3049C65.9363 20.8112 72.5174 19.6065 78.6149 21.9375C85.2304 24.4666 90.8694 29.3108 92.6695 35.828C94.531 42.5673 92.7058 49.9521 87.7872 55.1449C83.1515 60.0391 75.8678 60.7106 68.9143 60.9079Z" fill="#78C081" fill-opacity="0.15"/>
<path d="M74.0343 29.9024V15.3902H81.4255C83.2248 15.3902 84.5259 15.7772 85.3287 16.5511C86.1453 17.3113 86.5536 18.5414 86.5536 20.2414C86.5536 21.9414 86.1453 23.1784 85.3287 23.9524C84.5259 24.7264 83.2248 25.1133 81.4255 25.1133H76.9617V29.9024H74.0343ZM76.9617 22.3768H81.2594C82.0899 22.3768 82.6919 22.2109 83.0657 21.8792C83.4532 21.5337 83.647 20.9877 83.647 20.2414C83.647 19.5089 83.4532 18.9768 83.0657 18.645C82.6919 18.2995 82.0899 18.1268 81.2594 18.1268H76.9617V22.3768Z" fill="#495E4C"/>
<path d="M91.8761 30.089C90.4781 30.089 89.447 29.8264 88.7826 29.3012C88.1321 28.7621 87.8068 27.9052 87.8068 26.7304C87.8068 25.528 88.1667 24.6711 88.8864 24.1597C89.6061 23.6345 90.7688 23.3719 92.3744 23.3719H95.6132C95.5578 22.6394 95.3295 22.1142 94.9281 21.7963C94.5405 21.4646 93.9315 21.2987 93.101 21.2987C91.7584 21.2987 90.9695 21.7755 90.7342 22.7292H88.0352C88.2013 21.4024 88.6926 20.4418 89.5093 19.8475C90.3259 19.2394 91.5577 18.9353 93.2048 18.9353C95.0042 18.9353 96.3122 19.3085 97.1288 20.0548C97.9454 20.7873 98.3538 21.9759 98.3538 23.6207V29.9024H95.6132V28.8865C94.8243 29.6882 93.5786 30.089 91.8761 30.089ZM90.5473 26.606C90.5473 27.3524 91.2186 27.7255 92.5612 27.7255C93.5024 27.7255 94.2083 27.5597 94.6789 27.228C95.1634 26.8825 95.4748 26.3503 95.6132 25.6316V25.3829H93.101C91.3986 25.3829 90.5473 25.7906 90.5473 26.606Z" fill="#495E4C"/>
<path d="M100.275 26.4609H102.974C103.237 27.304 104.116 27.7255 105.611 27.7255C107.05 27.7255 107.77 27.4353 107.77 26.8548C107.77 26.3296 106.863 25.9426 105.05 25.6938C103.362 25.5003 102.164 25.141 101.458 24.6158C100.753 24.0768 100.4 23.2751 100.4 22.2109C100.4 21.0914 100.773 20.269 101.521 19.7438C102.268 19.2048 103.452 18.9353 105.071 18.9353C106.746 18.9353 107.991 19.2255 108.808 19.806C109.639 20.3727 110.13 21.2918 110.282 22.5633H107.583C107.431 22.1211 107.154 21.8032 106.753 21.6097C106.365 21.4024 105.791 21.2987 105.029 21.2987C103.715 21.2987 103.057 21.5682 103.057 22.1072C103.057 22.6048 103.888 22.9642 105.549 23.1853C107.376 23.4479 108.642 23.828 109.348 24.3255C110.054 24.8093 110.407 25.5764 110.407 26.6268C110.407 27.7877 110.012 28.6585 109.223 29.239C108.448 29.8056 107.216 30.089 105.528 30.089C103.867 30.089 102.614 29.7987 101.77 29.2182C100.926 28.6377 100.427 27.7186 100.275 26.4609Z" fill="#495E4C"/>
<path d="M117.291 30.089C115.394 30.089 114.017 29.6536 113.159 28.7829C112.315 27.8983 111.893 26.4747 111.893 24.5121C111.893 22.5633 112.322 21.1467 113.18 20.2621C114.038 19.3776 115.408 18.9353 117.291 18.9353C119.007 18.9353 120.294 19.2877 121.152 19.9926C122.011 20.6837 122.516 21.7963 122.668 23.3304H119.969C119.817 22.6808 119.533 22.2109 119.118 21.9207C118.703 21.6304 118.114 21.4853 117.353 21.4853C116.398 21.4853 115.699 21.7272 115.256 22.2109C114.827 22.6808 114.612 23.4479 114.612 24.5121C114.612 25.5625 114.827 26.3296 115.256 26.8134C115.699 27.2971 116.398 27.539 117.353 27.539C118.82 27.539 119.692 26.9239 119.969 25.6938H122.668C122.516 27.228 122.011 28.3475 121.152 29.0524C120.294 29.7434 119.007 30.089 117.291 30.089Z" fill="#495E4C"/>
<path d="M128.25 30.089C126.852 30.089 125.821 29.8264 125.156 29.3012C124.506 28.7621 124.18 27.9052 124.18 26.7304C124.18 25.528 124.54 24.6711 125.26 24.1597C125.98 23.6345 127.142 23.3719 128.748 23.3719H131.987C131.931 22.6394 131.703 22.1142 131.302 21.7963C130.914 21.4646 130.305 21.2987 129.475 21.2987C128.132 21.2987 127.343 21.7755 127.108 22.7292H124.409C124.575 21.4024 125.066 20.4418 125.883 19.8475C126.699 19.2394 127.931 18.9353 129.578 18.9353C131.378 18.9353 132.686 19.3085 133.502 20.0548C134.319 20.7873 134.727 21.9759 134.727 23.6207V29.9024H131.987V28.8865C131.198 29.6882 129.952 30.089 128.25 30.089ZM126.921 26.606C126.921 27.3524 127.592 27.7255 128.935 27.7255C129.876 27.7255 130.582 27.5597 131.052 27.228C131.537 26.8825 131.848 26.3503 131.987 25.6316V25.3829H129.475C127.772 25.3829 126.921 25.7906 126.921 26.606Z" fill="#495E4C"/>
<path d="M137.105 29.9024V14.3536H139.846V29.9024H137.105Z" fill="#495E4C"/>
<path d="M146.919 15.3902H150.013L154.996 26.8341L159.958 15.3902H163.072L156.636 29.9024H153.355L146.919 15.3902Z" fill="#495E4C"/>
<path d="M164.679 28.7621C163.807 27.8776 163.371 26.4609 163.371 24.5121C163.371 22.5633 163.807 21.1467 164.679 20.2621C165.551 19.3776 166.963 18.9353 168.915 18.9353C170.852 18.9353 172.25 19.3776 173.108 20.2621C173.98 21.1467 174.416 22.5633 174.416 24.5121C174.416 24.7056 174.403 24.9959 174.375 25.3829H166.174C166.354 26.9447 167.274 27.7255 168.935 27.7255C170.181 27.7255 171.005 27.304 171.406 26.4609H174.23C173.953 27.8016 173.365 28.7414 172.465 29.2804C171.565 29.8195 170.382 30.089 168.915 30.089C166.963 30.089 165.551 29.6467 164.679 28.7621ZM168.935 21.2987C168.16 21.2987 167.544 21.4577 167.088 21.7755C166.631 22.0934 166.34 22.6186 166.216 23.3512H171.655C171.531 22.6186 171.24 22.0934 170.783 21.7755C170.34 21.4577 169.724 21.2987 168.935 21.2987Z" fill="#495E4C"/>
<path d="M179.078 29.9024H176.338V19.1219H179.078V20.1999C179.798 19.3568 180.961 18.9353 182.566 18.9353C184.089 18.9353 185.196 19.3223 185.888 20.0963C186.594 20.8703 186.947 22.1142 186.947 23.828V29.9024H184.206V23.828C184.206 23.0125 184.006 22.4182 183.604 22.0451C183.217 21.6719 182.601 21.4853 181.757 21.4853C180.801 21.4853 180.116 21.7272 179.701 22.2109C179.286 22.6808 179.078 23.4479 179.078 24.5121V29.9024Z" fill="#495E4C"/>
<path d="M192.863 19.1219H195.811V21.6719H192.863V25.8182C192.863 26.3573 192.988 26.7512 193.237 26.9999C193.486 27.2349 193.901 27.3524 194.482 27.3524H195.998V29.9024H194.399C192.905 29.9024 191.818 29.6052 191.14 29.0109C190.462 28.4166 190.123 27.4629 190.123 26.1499V21.6719H188.545V19.1219H190.123V16.7792H192.863V19.1219Z" fill="#495E4C"/>
<path d="M76.5719 45.6585H79.5062V47.3539H76.5719V55.2412H74.7633V47.3539H73.0654V45.6585H74.7633V45.3268C74.7633 43.9508 75.0647 42.9496 75.6676 42.323C76.2704 41.6964 77.2362 41.3832 78.565 41.3832H79.6169V43.0785H78.6573C77.9314 43.0785 77.4023 43.2567 77.0701 43.613C76.7379 43.9692 76.5719 44.5405 76.5719 45.3268V45.6585Z" fill="#78C081"/>
<path d="M84.6803 55.2412H82.8717V45.6585H84.6803V46.8932C85.3078 45.9718 86.4028 45.5111 87.9653 45.5111H88.7958V47.2065H87.4485C86.4643 47.2065 85.7569 47.4645 85.3262 47.9805C84.8956 48.4842 84.6803 49.3073 84.6803 50.4498V55.2412Z" fill="#78C081"/>
<path d="M92.527 54.2092C91.7641 53.4229 91.3827 52.1698 91.3827 50.4498C91.3827 48.7299 91.7641 47.4767 92.527 46.6905C93.3021 45.9042 94.5508 45.5111 96.2733 45.5111C97.9834 45.5111 99.2138 45.9042 99.9643 46.6905C100.727 47.4767 101.108 48.7299 101.108 50.4498C101.108 50.5113 101.102 50.6034 101.09 50.7263C101.09 50.8491 101.09 50.9413 101.09 51.0027H93.2282C93.2898 51.9609 93.5666 52.6674 94.0587 53.1219C94.5631 53.5765 95.3075 53.8038 96.2917 53.8038C97.7312 53.8038 98.6478 53.3123 99.0415 52.3295H100.924C100.666 53.4598 100.137 54.2522 99.3368 54.7067C98.5494 55.1613 97.5282 55.3886 96.2733 55.3886C94.5508 55.3886 93.3021 54.9955 92.527 54.2092ZM96.2917 47.0959C95.369 47.0959 94.6554 47.2986 94.151 47.704C93.6588 48.0972 93.3636 48.7422 93.2651 49.639H99.2999C99.2015 48.7299 98.9062 48.0787 98.4141 47.6856C97.9342 47.2925 97.2268 47.0959 96.2917 47.0959Z" fill="#78C081"/>
<path d="M104.285 52.3295H106.075C106.235 52.8455 106.543 53.2202 106.998 53.4536C107.453 53.6871 108.099 53.8038 108.936 53.8038C110.572 53.8038 111.39 53.4106 111.39 52.6244C111.39 52.2681 111.169 51.9855 110.726 51.7767C110.283 51.5678 109.57 51.3897 108.585 51.2422C107.072 51.0457 106.002 50.7263 105.374 50.284C104.759 49.8294 104.451 49.166 104.451 48.2937C104.451 47.36 104.777 46.6659 105.429 46.2113C106.082 45.7445 107.109 45.5111 108.511 45.5111C109.914 45.5111 110.972 45.7568 111.686 46.2482C112.399 46.7273 112.842 47.5013 113.014 48.5702H111.224C111.064 48.0542 110.769 47.6795 110.338 47.446C109.908 47.2126 109.287 47.0959 108.475 47.0959C106.961 47.0959 106.205 47.4706 106.205 48.22C106.205 48.564 106.42 48.8404 106.851 49.0493C107.281 49.2459 107.964 49.4179 108.899 49.5653C110.486 49.811 111.587 50.1427 112.202 50.5604C112.83 50.9781 113.144 51.617 113.144 52.4769C113.144 54.418 111.723 55.3886 108.881 55.3886C107.466 55.3886 106.389 55.1429 105.651 54.6515C104.913 54.16 104.458 53.3861 104.285 52.3295Z" fill="#78C081"/>
<path d="M116.84 41.42H118.648V46.9485C119.312 45.9902 120.475 45.5111 122.136 45.5111C123.526 45.5111 124.541 45.8489 125.181 46.5246C125.821 47.2003 126.141 48.2753 126.141 49.7496V55.2412H124.351V49.7496C124.351 48.865 124.129 48.22 123.686 47.8146C123.243 47.4092 122.554 47.2065 121.619 47.2065C120.574 47.2065 119.817 47.4645 119.349 47.9805C118.882 48.4842 118.648 49.3073 118.648 50.4498V55.2412H116.84V41.42Z" fill="#78C081"/>
<path d="M140.145 55.3886C138.866 55.3886 137.931 55.1613 137.34 54.7067C136.75 54.2522 136.454 53.5212 136.454 52.5138C136.454 51.4695 136.78 50.7263 137.432 50.284C138.097 49.8294 139.161 49.6021 140.625 49.6021H143.892C143.892 48.7299 143.67 48.0972 143.227 47.704C142.784 47.2986 142.077 47.0959 141.105 47.0959C140.33 47.0959 139.733 47.2249 139.315 47.4829C138.896 47.7286 138.614 48.1279 138.466 48.6807H136.676C136.848 47.575 137.291 46.7703 138.005 46.2666C138.718 45.7629 139.776 45.5111 141.179 45.5111C142.754 45.5111 143.898 45.8366 144.611 46.4878C145.337 47.1266 145.7 48.1525 145.7 49.5653V55.2412H143.892V54.0065C143.166 54.9279 141.917 55.3886 140.145 55.3886ZM138.263 52.4401C138.263 52.9192 138.447 53.2693 138.817 53.4905C139.198 53.6993 139.782 53.8038 140.57 53.8038C141.616 53.8038 142.397 53.6133 142.913 53.2325C143.443 52.8516 143.769 52.2435 143.892 51.4081V50.9658H141.086C139.204 50.9658 138.263 51.4572 138.263 52.4401Z" fill="#78C081"/>
<path d="M149.87 55.2412V45.6585H151.679V55.2412H149.87ZM149.852 43.7972C149.667 43.613 149.575 43.3058 149.575 42.8758C149.575 42.4458 149.667 42.1387 149.852 41.9544C150.036 41.7701 150.344 41.678 150.774 41.678C151.205 41.678 151.513 41.7701 151.697 41.9544C151.882 42.1387 151.974 42.4458 151.974 42.8758C151.974 43.3058 151.882 43.613 151.697 43.7972C151.513 43.9815 151.205 44.0737 150.774 44.0737C150.344 44.0737 150.036 43.9815 149.852 43.7972Z" fill="#78C081"/>
<path d="M157.697 55.2412H155.888V45.6585H157.697V46.8932C158.324 45.9718 159.419 45.5111 160.982 45.5111H161.812V47.2065H160.465C159.481 47.2065 158.773 47.4645 158.343 47.9805C157.912 48.4842 157.697 49.3073 157.697 50.4498V55.2412Z" fill="#78C081"/>
<path fill-rule="evenodd" clip-rule="evenodd" d="M2.52329 23.524C0.180896 31.8696 -0.354865 40.6156 0.2027 49.2039C-0.0496056 51.9342 1.4362 54.5704 3.41103 56.4513C6.30165 59.1876 11.9957 58.8145 15.7335 58.4292C22.5396 57.78 25.5672 51.5731 25.9659 45.5938C26.2712 35.2582 26.3459 24.3977 26.3241 14.0439C26.3194 13.749 26.3201 13.4395 26.3207 13.1214C26.3235 11.757 26.3266 10.2335 25.9099 9.02319C24.8975 5.6437 21.7484 4.43024 18.5836 5.07944C17.9441 5.28215 17.3282 5.54956 16.7459 5.87729C14.8454 6.90653 13.0692 8.13981 11.4506 9.55407C8.21454 12.3359 5.64094 15.7721 3.90942 19.6228C3.73838 19.9714 3.5648 20.4474 3.40408 20.8882C3.31309 21.1377 3.22622 21.376 3.14627 21.5734C2.98076 21.982 2.81177 22.5538 2.66409 23.0534C2.61443 23.2214 2.56719 23.3813 2.52329 23.524ZM0.2027 49.2039C1.19012 40.4639 2.57936 31.7604 5.74097 23.5331C7.45625 19.1991 10.3115 15.3805 14.0203 12.4603C14.3603 12.1747 14.8645 11.805 15.2755 11.5035C15.3578 11.4431 15.4365 11.3855 15.5093 11.3318C15.5093 11.3318 18.0572 9.1597 19.4371 9.04139C20.817 8.92308 21.5739 9.02015 21.8854 10.5127L21.982 11.2256L22.0038 12.0144C21.982 15.591 21.9664 22.2014 22.0038 25.8417C22.0505 31.093 22.1128 36.3442 22.2374 41.5924L22.3215 45.4209C22.3075 46.6138 22.1676 47.8022 21.9041 48.9672C21.3061 51.7248 19.786 54.4096 17.0293 55.4957C15.2538 56.1297 13.3257 56.3784 11.4568 56.5969C9.26702 56.785 6.97446 56.8972 4.9529 56.0114C2.4828 54.5734 0.48927 52.0828 0.2027 49.2039Z" fill="#78C081"/>
<path d="M55.6471 25.8277C56.8438 28.788 59.0239 33.4156 59.7772 38.9752C59.2372 28.8158 58.5343 28.788 58.1865 27.2303C57.6296 24.7368 56.8847 22.2869 55.9576 19.9005C53.3009 13.7481 48.5397 8.68435 42.485 5.57176C41.9697 5.29097 41.41 5.09599 40.8289 4.99484C40.4958 4.97662 40.3029 4.92197 39.839 4.92197C36.6794 4.74586 34.2887 6.76506 33.744 9.72858C33.4576 11.013 33.5354 12.5889 33.5354 13.855C33.498 20.7264 33.4825 29.2526 33.5977 36.1634C33.6444 38.6472 33.6755 41.1309 33.744 43.6147C33.7332 44.9558 33.8373 46.2955 34.0553 47.6197C35.0981 53.6348 38.5783 58.2835 45.2275 58.5507C48.5334 58.7845 52.0603 58.9211 55.1358 57.4576C57.5483 56.155 58.5306 53.9542 59.2372 51.5251C59.6993 49.9369 60.3252 48.3117 62.9543 45.7155C60.3252 47.2733 59.4548 48.057 57.696 52.4656C55.3396 56.3886 53.6479 56.8685 49.2462 56.5983C48.0194 56.5057 46.7992 56.3435 45.5917 56.1125C44.4959 55.8969 43.2975 55.6904 42.3169 55.1712C39.2943 53.6621 38.046 50.2735 37.6942 47.1278C37.573 45.9881 37.5449 44.8408 37.6102 43.6967C37.716 39.3729 37.8405 33.1695 37.8405 28.788C37.8405 24.4065 37.9059 18.1485 37.8405 13.8307C37.853 12.5524 37.576 10.597 38.2452 9.51603C38.7184 8.73871 39.4915 8.49697 40.7698 9.09397C46.1743 11.6657 50.59 15.8612 53.3677 21.0634C54.1769 22.6927 55.1294 24.5471 55.6471 25.8277Z" fill="#78C081"/>
<path d="M30.182 12.227C30.4016 11.7832 30.2194 11.2456 29.775 11.0262C29.3306 10.8069 28.7924 10.9888 28.5728 11.4326L24.3326 20.0007C24.113 20.4445 24.2952 20.9821 24.7395 21.2014C25.1839 21.4208 25.7222 21.2389 25.9418 20.7951L30.182 12.227Z" fill="#78C081"/>
<path d="M29.1187 12.227C28.8991 11.7832 29.0813 11.2456 29.5257 11.0262C29.9701 10.8069 30.5083 10.9888 30.728 11.4326L34.9682 20.0007C35.1878 20.4445 35.0056 20.9821 34.5612 21.2014C34.1168 21.4208 33.5785 21.2389 33.3589 20.7951L29.1187 12.227Z" fill="#78C081"/>
<path d="M28.7211 0.896237C28.7211 0.401258 29.1229 0 29.6186 0C30.1143 0 30.5162 0.401259 30.5162 0.896238V12.2512C30.5162 12.7462 30.1143 13.1475 29.6186 13.1475C29.1229 13.1475 28.7211 12.7462 28.7211 12.2512V0.896237Z" fill="#78C081"/>
<path d="M56.4555 55.1091C56.1812 54.5752 55.9039 54.0828 55.6211 53.5907C55.3382 53.0986 55.0502 52.6133 54.7482 52.1268C54.4461 51.6403 54.1288 51.1764 53.8199 50.7142C53.7395 50.5934 53.6487 50.4841 53.5631 50.368C53.4774 50.2519 53.3839 50.1428 53.29 50.0294C53.1961 49.916 53.0944 49.8096 52.9891 49.6926C52.9391 49.636 52.8843 49.5823 52.8251 49.5315C52.7685 49.4765 52.7091 49.4217 52.6551 49.3622C53.0196 49.4364 53.3618 49.5617 53.6651 49.7321C53.8186 49.8148 53.9645 49.9056 54.1017 50.0039C54.2416 50.1 54.3741 50.2025 54.4985 50.3108C54.9911 50.7376 55.4027 51.2177 55.7211 51.7373C56.0425 52.2519 56.2799 52.7974 56.4282 53.3615C56.5928 53.9323 56.6021 54.5274 56.4555 55.1091Z" fill="#78C081"/>
<path d="M56.1931 49.3396C55.9411 48.7348 55.5281 48.2027 54.9931 47.7936C54.4791 47.3949 53.892 47.0867 53.2593 46.8835C52.6214 46.6855 51.9617 46.5521 51.2915 46.4855C50.614 46.4091 49.9186 46.3732 49.2147 46.3384L49.8016 45.7525C49.9148 46.6075 50.0476 47.4572 50.1409 48.3149C50.1975 48.7424 50.2374 49.1748 50.3072 49.5707C50.3341 49.7737 50.377 49.9665 50.4282 50.1555C50.4813 50.345 50.5485 50.5305 50.6294 50.7107C50.9589 51.4438 51.4861 52.0812 52.1598 52.5611C52.8661 53.0717 53.7004 53.4055 54.5865 53.532C53.6302 53.6432 52.6659 53.469 51.8307 53.0342C50.9585 52.5916 50.247 51.9174 49.7835 51.0943C49.6684 50.8834 49.5697 50.6648 49.488 50.4401C49.4094 50.2208 49.3467 49.9966 49.3005 49.7689C49.199 49.3093 49.1427 48.8844 49.0761 48.4691C48.9419 47.6087 48.829 46.7564 48.7158 45.9014L48.6316 45.2655L49.3055 45.3151C50.029 45.3654 50.7485 45.4519 51.4609 45.5741C52.1942 45.6948 52.9054 45.9071 53.5757 46.2055C54.2548 46.5086 54.8554 46.9444 55.3381 47.4843C55.8184 48.0038 56.1166 48.6509 56.1931 49.3396Z" fill="#78C081"/>
<path d="M57.4187 49.0076C57.186 48.6257 57.0229 48.1991 56.9402 47.7562C56.8561 47.3074 56.8284 46.8532 56.858 46.4076C56.9352 45.5166 57.1527 44.6634 57.5005 43.8879C57.8415 43.0973 58.2877 42.3792 58.8246 41.7566C59.1062 41.4368 59.4216 41.1578 59.7649 40.9249C60.1051 40.7025 60.4636 40.5145 60.8368 40.3629C61.2022 40.2039 61.5736 40.0853 61.9397 39.9726C62.3059 39.86 62.6661 39.762 63.0328 39.6618C63.7589 39.4725 64.4675 39.2846 65.1366 39.0421C65.782 38.8208 66.3886 38.4948 66.939 38.0734C67.5188 37.6367 67.9865 37.0396 68.304 36.3307C68.5422 35.7397 68.7406 35.1152 68.9596 34.5094C68.8987 34.6862 69.0995 35.3098 69.1334 35.5229C69.3167 36.6612 69.3955 37.8072 69.3687 38.9418C69.3605 39.6873 69.3069 40.4264 69.2083 41.1538L69.1638 41.4352L69.0087 42.2358C68.9363 42.5858 68.8573 42.9378 68.7609 43.2915C68.5621 44.0116 68.2633 44.6817 67.8752 45.2778C67.6814 45.5701 67.4682 45.8444 67.2372 46.0984C67.0015 46.3457 66.7661 46.5717 66.5237 46.7874C66.0381 47.2198 65.5215 47.6072 64.9781 47.9464C63.8984 48.6226 62.7172 49.0933 61.4764 49.3417C62.5932 48.827 63.6417 48.1606 64.6009 47.3557C65.0728 46.9613 65.5195 46.5307 65.9383 46.0666C66.3519 45.6248 66.7193 45.1301 67.0345 44.5907C67.3223 44.0543 67.5314 43.4625 67.6543 42.8363C67.7226 42.5174 67.7806 42.1891 67.8315 41.8506L67.9051 41.3394L67.9429 41.0814L67.9727 40.8429C68.0351 40.1711 68.0625 39.4921 68.0547 38.8092C68.054 38.1152 68.4497 38.7844 67.7805 39.3232C67.1246 39.8342 66.3936 40.2188 65.6133 40.4634C64.8665 40.7105 64.1161 40.8698 63.3877 41.0303C62.6594 41.1908 61.9305 41.3388 61.2636 41.5552C60.9357 41.6574 60.6186 41.792 60.3158 41.9576C60.0171 42.1232 59.7392 42.3287 59.4873 42.5703C58.9558 43.0716 58.495 43.6614 58.1182 44.3228C57.7227 44.9815 57.431 45.72 57.2548 46.5091C57.0601 47.3125 57.1179 48.1935 57.4187 49.0076Z" fill="#78C081"/>
</svg>
